<?xml version="1.0" encoding="UTF-8"?>
<svg width="100px" height="100px" viewBox="0 0 100 100" version="1.1" xmlns="http://www.w3.org/2000/svg" xmlns:xlink="http://www.w3.org/1999/xlink">
    <title>Icon/Pro-tools</title>
    <g id="Icon/Pro-tools" stroke="none" stroke-width="1" fill="none" fill-rule="evenodd">
        <path d="M53.4405836,26.2286472 C56.9163342,26.6427427 57.6010657,29.7839156 55.24862,32.2858443 L55.1007958,32.4381963 L45.9782493,41.5519894 C43.9799924,43.5584919 43.9168919,46.7737474 45.8122911,48.8631816 L45.9846154,49.0445623 L51.7005305,54.7538462 C53.696726,56.7521031 56.9216996,56.8152036 58.982032,54.9256402 L59.1607427,54.7538462 L67.9835544,45.9289125 C70.5082228,43.4039788 73.6562334,44.0962865 73.9278515,47.6580902 C74.4281167,54.1952255 72.1835544,60.8986737 67.1793103,65.903183 C63.5419098,69.5339523 59.0119363,71.6944297 54.2986737,72.4318302 C52.0671088,72.7854111 49.798939,72.8068966 47.5586207,72.5007958 C33.5916711,86.4846419 25.5089325,95.1444471 25.1912097,95.4852458 L25.1814755,95.4956911 C19.8385047,100.827787 11.1623774,100.827787 5.82815988,95.4956911 C3.24938004,92.9126673 1.82205909,89.4824285 1.82205909,85.8320306 C1.82205909,82.2993132 3.15264128,78.9755424 5.57123827,76.4217748 L5.83452593,76.1511288 L27.7265252,53.6501326 C27.3450928,51.5456233 27.2458886,49.4047745 27.4355438,47.2830239 C27.9098143,42.0350133 30.1501326,36.9100796 34.1625995,32.8909814 C39.4299735,27.6278515 46.5798408,25.4092838 53.4405836,26.2286472 Z M73.4687688,74.1694729 L85,85.5327137 L83.7204401,86.6452438 C75.4434689,93.8422574 65.2946236,98.056938 54.3347717,98.8548398 L53.7015803,98.8970787 L52,99 L52.0005106,82.9851226 C60.2861271,82.7383963 67.8046078,79.4374518 73.4687688,74.1694729 Z M10.7709657,81.4719047 C8.42166309,83.810486 8.42702373,87.6196709 10.765605,89.9526682 C13.115131,92.3019708 16.9060003,92.3019708 19.2626738,89.9580289 C21.5941076,87.6196709 21.5941076,83.810486 19.2553029,81.4719047 C16.905777,79.1389074 13.1149076,79.1333234 10.7709657,81.4719047 Z M100,51 L99.8970886,52.7017635 C99.2152134,63.9071119 94.979046,74.2868032 87.6464368,82.7210129 L86.5340141,84 L75.1704007,72.4677712 C80.4378393,66.803725 83.7384108,59.2856407 83.9851226,51.0005106 L100,51 Z M14.469712,16 L26.3516876,28.0572722 C21.362853,33.6572509 18.2537837,40.9684454 18.0148477,49.0004872 L1,49 L1.10362394,47.2978559 C1.78348101,36.0946784 6.02156015,25.7141565 13.3578551,17.2794498 L14.469712,16 Z M86.5263132,16 L87.638736,17.2780564 C94.9783459,25.7086823 99.2152134,36.0894276 99.8970886,47.2978192 L100,49 L83.9851523,49.0004872 C83.7386179,40.7130173 80.4365005,33.1929713 75.1666893,27.5282387 L86.5263132,16 Z M52,0 L53.7015803,0.104306474 C64.6936266,0.776031186 74.8943837,4.86835013 83.2409709,11.9468803 L83.7204401,12.3585671 L85,13.4716362 L72.9437317,25.352582 C67.3438548,20.3634312 60.0326402,17.2540555 52.0005106,17.0148774 L52,0 Z M50,0 L50.0004872,17.0148477 C41.9689253,17.2537694 34.6581247,20.3624815 29.0582761,25.3507932 L17,13.4709858 L18.2798079,12.3579705 C26.7140335,5.02676933 37.0939081,0.788910882 48.29809,0.104301439 L50,0 Z" id="Combined-Shape" fill="#6DCFF6"></path>
    </g>
</svg>