<?xml version="1.0" encoding="UTF-8"?>
<svg width="100px" height="100px" viewBox="0 0 100 100" version="1.1" xmlns="http://www.w3.org/2000/svg" xmlns:xlink="http://www.w3.org/1999/xlink">
    <title>Icon/Portfolio-analysis</title>
    <g id="Icon/Portfolio-analysis" stroke="none" stroke-width="1" fill="none" fill-rule="evenodd">
        <g id="infographic" transform="translate(4.000000, 0.000000)" fill="#6DCFF6">
            <path d="M18.3845703,65.3767578 C19.4632812,65.3767578 20.3376953,66.2511719 20.3376953,67.3298828 L20.3376953,67.3298828 L20.3376953,98.046875 C20.3376953,99.1255859 19.4630859,100 18.3845703,100 L18.3845703,100 L3.29492187,100 C2.21640625,100 1.34179687,99.1255859 1.34179687,98.046875 L1.34179687,98.046875 L1.34179687,67.3298828 C1.34179687,66.2511719 2.21640625,65.3767578 3.29492187,65.3767578 L3.29492187,65.3767578 Z M42.5263672,51.7378906 C43.6048828,51.7378906 44.4794922,52.6125 44.4794922,53.6910156 L44.4794922,53.6910156 L44.4794922,98.046875 C44.4794922,99.1255859 43.6050781,100 42.5263672,100 L42.5263672,100 L27.4367187,100 C26.3580078,100 25.4835937,99.1255859 25.4835937,98.046875 L25.4835937,98.046875 L25.4835937,53.6910156 C25.4835937,52.6123047 26.3580078,51.7378906 27.4367187,51.7378906 L27.4367187,51.7378906 Z M66.6677734,38.0992188 C67.7464844,38.0992188 68.6208984,38.9736328 68.6208984,40.0523438 L68.6208984,40.0523438 L68.6208984,98.046875 C68.6208984,99.1255859 67.7462891,100 66.6677734,100 L66.6677734,100 L51.578125,100 C50.4996094,100 49.625,99.1255859 49.625,98.046875 L49.625,98.046875 L49.625,40.0523438 C49.625,38.9736328 50.4996094,38.0992188 51.578125,38.0992188 L51.578125,38.0992188 Z M90.809375,24.4603516 C91.8878906,24.4603516 92.7625,25.3347656 92.7625,26.4134766 L92.7625,26.4134766 L92.7625,98.046875 C92.7625,99.1255859 91.8878906,100 90.809375,100 L90.809375,100 L75.7197266,100 C74.6412109,100 73.7666016,99.1255859 73.7666016,98.046875 L73.7666016,98.046875 L73.7666016,26.4134766 C73.7666016,25.3347656 74.6412109,24.4603516 75.7197266,24.4603516 L75.7197266,24.4603516 Z M23.4298828,-2.13162821e-14 C36.3492187,-2.13162821e-14 46.8597656,10.4623047 46.8597656,23.3224609 C46.8597656,36.1824219 36.3490234,46.6447266 23.4298828,46.6447266 C10.5105469,46.6447266 -4.61852778e-14,36.1824219 -4.61852778e-14,23.3224609 C-4.61852778e-14,10.4623047 10.5107422,-2.13162821e-14 23.4298828,-2.13162821e-14 Z M23.4298828,3.90625 C12.6646484,3.90625 3.90625,12.6162109 3.90625,23.3224609 C3.90625,34.0285156 12.6646484,42.7384766 23.4298828,42.7384766 C34.1951172,42.7384766 42.9535156,34.0285156 42.9535156,23.3224609 C42.9535156,12.6162109 34.1951172,3.90625 23.4298828,3.90625 Z M23.1597656,9.47792969 C24.2384766,9.47792969 25.1128906,10.3523438 25.1128906,11.4310547 L25.1128906,11.4310547 L25.1128906,11.7259766 C27.1642578,12.0802734 28.7384766,13.11875 29.6132812,14.3589844 C30.2351562,15.240625 30.0246094,16.4591797 29.1429687,17.0808594 C28.2615234,17.7027344 27.0429687,17.4919922 26.4210937,16.6105469 C26.1960937,16.2916016 25.7515625,15.9582031 25.1128906,15.7414063 L25.1128906,15.7414063 L25.1128906,21.4367187 C25.3716797,21.5292969 25.6433594,21.6257812 25.9283203,21.7259766 C29.5119141,22.9865234 31.7179687,26.2134766 31.2933594,29.5736328 C30.9908203,31.9654297 29.2033203,34.6419922 25.1130859,35.1921875 L25.1130859,35.1921875 L25.1130859,35.2134766 C25.1130859,36.2921875 24.2386719,37.1666016 23.1599609,37.1666016 C22.0814453,37.1666016 21.2068359,36.2921875 21.2068359,35.2134766 L21.2068359,35.2134766 L21.2068359,35.0451172 C19.2744141,34.6527344 17.2984375,33.7527344 15.9519531,32.0894531 C15.2732422,31.2511719 15.4025391,30.0212891 16.2410156,29.3425781 C17.0794922,28.6638672 18.3089844,28.7931641 18.9878906,29.6316406 C19.5177734,30.2863281 20.3222656,30.7388672 21.2066406,31.0199219 L21.2066406,31.0199219 L21.2066406,24.1529297 C20.5541016,23.8988281 20.0394531,23.6851562 19.7066406,23.5291016 C17.2511719,22.3769531 15.896875,20.1755859 16.0841797,17.6402344 C16.2738281,15.0738281 18.0585937,12.7861328 20.4242187,12.0769531 C20.6886719,11.9976563 20.9494141,11.9291016 21.2066406,11.8703125 L21.2066406,11.8703125 L21.2066406,11.4310547 C21.2066406,10.3523438 22.08125,9.47792969 23.1597656,9.47792969 Z M25.1128906,25.6054687 L25.1128906,31.225 C26.45625,30.9121094 27.2820312,30.1570312 27.4175781,29.0837891 C27.5625,27.9396484 26.8910156,26.4248047 25.1128906,25.6054687 L25.1128906,25.6054687 Z M21.2066406,15.9617187 C20.5451172,16.3232422 20.040625,17.1074219 19.9800781,17.928125 C19.9167969,18.7849609 20.3292969,19.4521484 21.2066406,19.9136719 L21.2066406,19.9136719 Z" id="Combined-Shape"></path>
        </g>
    </g>
</svg>