<?xml version="1.0" encoding="UTF-8"?>
<svg width="100px" height="100px" viewBox="0 0 100 100" version="1.1" xmlns="http://www.w3.org/2000/svg" xmlns:xlink="http://www.w3.org/1999/xlink">
    <title>Icon/Invest</title>
    <g id="Icon/Invest" stroke="none" stroke-width="1" fill="none" fill-rule="evenodd">
        <g id="world-grid" fill="#6DCFF6">
            <path d="M92.5191406,76.7890625 C84.1943359,90.05625 69.5228516,99.0300781 52.9765625,100 L52.9765625,100 L52.9765625,98.6650391 C61.1003906,92.9193359 67.7958984,85.4400391 72.0978516,76.7890625 L72.0978516,76.7890625 Z M27.9021484,76.7890625 C32.2041016,85.4400391 38.915625,92.9193359 47.0390625,98.6650391 L47.0390625,98.6650391 L47.0390625,100 C30.4927734,99.0300781 15.8056641,90.05625 7.48085937,76.7890625 L7.48085937,76.7890625 Z M47.0390625,76.7890625 L47.0390625,91.3851562 C42.053125,87.2386719 37.6621094,82.3154297 34.5203125,76.7890625 L34.5203125,76.7890625 L47.0390625,76.7890625 Z M65.4789062,76.7890625 C62.3447266,82.3015625 57.9460937,87.1796875 52.9765625,91.3197266 L52.9765625,91.3197266 L52.9765625,76.7890625 Z M47.0390625,52.5859375 L47.0390625,70.8515625 L31.6628906,70.8515625 C29.3634766,65.3240234 27.9980469,58.7138672 27.6625,52.5859375 L27.6625,52.5859375 L47.0390625,52.5859375 Z M99.9998047,52.5859375 C99.634375,58.821875 98.1388672,65.4353516 95.6783203,70.8515625 L95.6783203,70.8515625 L74.6583984,70.8515625 C76.7138672,65.2744141 77.8771484,58.6677734 78.1775391,52.5859375 L78.1775391,52.5859375 Z M21.8224609,52.5859375 C22.1228516,58.6677734 23.2865234,65.2744141 25.3417969,70.8515625 L25.3417969,70.8515625 L4.32148438,70.8515625 C1.86113281,65.4351563 0.365429687,58.821875 0,52.5859375 L0,52.5859375 Z M72.3181641,52.5859375 C71.9828125,58.7111328 70.6494141,65.3261719 68.3509766,70.8515625 L68.3509766,70.8515625 L52.9765625,70.8515625 L52.9765625,52.5859375 Z M95.6785156,29.1484375 C98.1388672,34.5646484 99.6345703,40.4125 100,46.6484375 L100,46.6484375 L78.1775391,46.6484375 C77.8769531,40.5666016 76.7136719,34.7255859 74.6583984,29.1484375 L74.6583984,29.1484375 Z M47.0390625,29.1484375 L47.0390625,46.6484375 L27.6625,46.6484375 C27.9980469,40.5205078 29.3634766,34.6759766 31.6628906,29.1484375 L31.6628906,29.1484375 L47.0390625,29.1484375 Z M25.3417969,29.1484375 C23.2865234,34.7255859 22.1228516,40.5666016 21.8224609,46.6484375 L21.8224609,46.6484375 L0,46.6484375 C0.365429687,40.4125 1.86113281,34.5646484 4.32148438,29.1484375 L4.32148438,29.1484375 Z M68.3509766,29.1484375 C70.6494141,34.6738281 71.9828125,40.5234375 72.3181641,46.6484375 L72.3181641,46.6484375 L52.9765625,46.6484375 L52.9765625,29.1484375 Z M47.0390625,8.61484375 L47.0390625,23.2109375 L34.4421875,23.2109375 C37.5839844,17.6845703 42.0529297,12.7611328 47.0390625,8.61484375 L47.0390625,8.61484375 Z M52.9765625,8.68027344 C57.9460937,12.8203125 62.3447266,17.6984375 65.4789062,23.2109375 L65.4789062,23.2109375 L52.9765625,23.2109375 Z M52.9765625,1.77635684e-15 C69.5230469,0.969921875 84.1943359,9.94375 92.5191406,23.2109375 L92.5191406,23.2109375 L72.0978516,23.2109375 C67.7958984,14.5599609 61.1003906,7.08066406 52.9765625,1.33496094 L52.9765625,1.33496094 Z M47.0390625,0 L47.0390625,1.33496094 C38.915625,7.08066406 32.2041016,14.5599609 27.9021484,23.2109375 L27.9021484,23.2109375 L7.48085937,23.2109375 C15.8056641,9.94375 30.4927734,0.969921875 47.0390625,0 L47.0390625,0 Z" id="Combined-Shape"></path>
        </g>
    </g>
</svg>