<?xml version="1.0" encoding="UTF-8"?>
<svg width="104px" height="34px" viewBox="0 0 104 34" version="1.1" xmlns="http://www.w3.org/2000/svg" xmlns:xlink="http://www.w3.org/1999/xlink">
    <title>Halo Investments Platform Logo</title>
    <g id="Symbols" stroke="none" stroke-width="1" fill="none" fill-rule="evenodd">
        <g id="Nav/main" transform="translate(-120.000000, -17.000000)">
            <g id="Halo-Investments-Platform-Logo" transform="translate(120.000000, 17.000000)">
                <g id="HALO-Tech-Logo-CMYK"></g>
                <g id="HALO-Tech-Logo-CMYK">
                    <path d="M95.7186549,18.3925381 L99.8022655,22.4761487 L99.470754,22.7686372 C97.3801259,24.6132987 94.8285525,25.7127344 92.0707176,25.961108 L91.6933947,25.989692 L91.2525451,26.0167504 L91.2525451,20.2420814 C91.3920708,20.2350867 91.530492,20.2231221 91.6678088,20.2083965 C91.8077027,20.1933027 91.9459398,20.1732389 92.0832566,20.1502301 C93.1816071,19.9665274 94.195469,19.5348814 95.0661239,18.9145628 C95.1800637,18.8332035 95.2919788,18.7492673 95.4007646,18.6616496 C95.5091823,18.5747681 95.6155752,18.4853097 95.7186549,18.3925381 Z M86.0477593,18.3921699 C86.1506549,18.4851257 86.2572319,18.5744 86.3656496,18.6612814 C86.4744354,18.7488991 86.5863504,18.8328354 86.7002903,18.9141947 C87.5703929,19.5341451 88.5835186,19.9657912 89.6813168,20.1498619 C89.8186336,20.1728708 89.9568708,20.1929345 90.0965805,20.2080283 C90.2340814,20.2229381 90.3723186,20.2349027 90.5120283,20.2418973 L90.5120283,26.0169345 L90.0711788,25.989692 C87.1693027,25.8107752 84.4805805,24.6971469 82.2954761,22.7686372 L81.9639646,22.4761487 L86.0477593,18.3921699 Z M65.3944637,0.262116814 L65.3944637,20.2161274 L76.2680779,20.2161274 L76.2680779,25.9278442 L58.6939186,25.9278442 L58.6939186,0.262116814 L65.3944637,0.262116814 Z M23.7620673,0.262116814 L23.7620673,25.9278442 L17.0617062,25.9278442 L17.0617062,16.0787681 L8.76232212,16.0787681 L8.76232212,10.7339044 L17.0617062,10.7339044 L17.0617062,0.262116814 L23.7620673,0.262116814 Z M44.798046,0.262116814 L55.5623221,25.9278442 L48.4231363,25.9278442 L46.6658124,21.3877381 L37.8140319,21.3877381 L39.8386265,16.2617345 L44.6885239,16.2617345 L41.173692,7.10881416 L37.5854159,16.2617345 L37.6021664,16.2617345 L35.5773876,21.3877381 L35.5722336,21.3877381 L33.7780956,25.9278442 L26.8947681,25.9278442 L37.9154549,0.262116814 L44.798046,0.262116814 Z M103.867837,13.403115 L103.840779,13.8439646 C103.661494,16.7467611 102.547681,19.4356673 100.619724,21.6205876 L100.327235,21.951915 L96.2428885,17.8683044 C96.3358442,17.7652248 96.4253027,17.6588319 96.5121841,17.5504142 C96.5998018,17.4416283 96.6837381,17.3298973 96.7650973,17.2159575 C97.3856,16.3454867 97.817246,15.3319929 98.0013168,14.2336425 C98.0243257,14.0965097 98.0443894,13.9580885 98.0594832,13.8183788 C98.0743929,13.6808779 98.0863575,13.5428248 98.0935363,13.403115 L103.867837,13.403115 Z M83.673246,13.403115 C83.6802407,13.5428248 83.6923894,13.6808779 83.7072991,13.8183788 C83.722577,13.9580885 83.7422726,14.0965097 83.7652814,14.2336425 C83.9493522,15.3314407 84.3809982,16.3445664 85.0009487,17.2148531 C85.082308,17.3287929 85.1662442,17.4405239 85.2536779,17.5494938 C85.3409274,17.6577274 85.4300177,17.7644885 85.5231575,17.8673841 L81.4393628,21.9506265 L81.1468743,21.618931 C79.2187327,19.4332743 78.1049204,16.7445522 77.9261876,13.8439646 L77.8989451,13.403115 L83.673246,13.403115 Z M81.4400991,4.11343009 L85.5229735,8.19667257 C85.4300177,8.29975221 85.3407434,8.40614513 85.2536779,8.51456283 C85.1662442,8.62353274 85.082308,8.73526372 85.0009487,8.84920354 C84.380446,9.72022655 83.9488,10.7342726 83.7647292,11.8331752 C83.7420885,11.970492 83.7220248,12.1085451 83.706931,12.2484389 C83.6922053,12.3857558 83.6802407,12.524177 83.673246,12.6638867 L77.8989451,12.6638867 L77.9261876,12.2228531 C78.1049204,9.32005664 79.2191009,6.63041416 81.1477947,4.44494159 L81.4400991,4.11343009 Z M100.325211,4.11361416 L100.617699,4.44475752 C102.547497,6.62912566 103.661494,9.31876814 103.840779,12.2228531 L103.867837,12.6638867 L98.0935363,12.6638867 C98.0865416,12.524177 98.0747611,12.3857558 98.0598513,12.2484389 C98.0447575,12.1085451 98.0248779,11.970492 98.001869,11.8331752 C97.8181664,10.7339044 97.3861522,9.71930619 96.7650973,8.84809912 C96.6839221,8.73415929 96.5998018,8.62242832 96.5121841,8.51364248 C96.4253027,8.40522478 96.3358442,8.29864779 96.2428885,8.19556814 L100.325211,4.11361416 Z M90.5120283,0.0469380531 L90.5120283,5.82197522 C90.3723186,5.82896991 90.2340814,5.84111858 90.0965805,5.85602832 C89.9568708,5.87112212 89.8186336,5.89100177 89.6813168,5.91401062 C88.5831504,6.09826549 87.5696566,6.53009558 86.6993699,7.15041416 C86.5854301,7.23158938 86.4736991,7.31570973 86.3647292,7.40332743 C86.2564956,7.49039292 86.1499186,7.57948319 86.0468389,7.67262301 L81.9639646,3.58919646 L82.2954761,3.29652389 C84.4802124,1.36875044 87.1689345,0.254385841 90.0711788,0.0743646018 L90.5120283,0.0469380531 Z M91.2525451,0.0469380531 L91.6933947,0.0743646018 C94.5960071,0.254385841 97.2856496,1.36875044 99.470754,3.29652389 L99.470754,3.29652389 L99.8022655,3.58919646 L95.7195752,7.67225487 C95.6164956,7.57929912 95.5099186,7.49002478 95.401685,7.40295929 C95.292715,7.31534159 95.1809841,7.23140531 95.0670442,7.15004602 C94.1960212,6.52935929 93.1819752,6.0975292 92.0832566,5.91364248 C91.9459398,5.89063363 91.8077027,5.87075398 91.6678088,5.85566018 C91.530492,5.84075044 91.3920708,5.82896991 91.2525451,5.82179115 L91.2525451,5.82179115 L91.2525451,0.0469380531 Z" id="Combined-Shape" fill="#425E76"></path>
                    <polygon id="Fill-3" fill="#6DCFF6" points="0 25.9278442 6.67900885 25.9278442 6.67900885 0.298930973 0 0.298930973"></polygon>
                </g>
                <path d="M1.09748743,33.6849558 C1.23012724,33.6849558 1.36169737,33.6616503 1.49219783,33.6150394 C1.62269828,33.5684284 1.7414323,33.498512 1.84839989,33.4052902 C1.95108877,33.3163057 2.03452349,33.2040157 2.09870404,33.0684203 C2.16288459,32.9328249 2.19497487,32.7696866 2.19497487,32.5790055 L2.19497487,32.5790055 L2.19497487,31.1552535 L1.02047077,31.1552535 L1.02047077,31.7272967 L1.54033324,31.7272967 L1.54033324,32.5790055 C1.54033324,32.7357877 1.49647653,32.8512557 1.40876311,32.9254095 C1.32104969,32.9995632 1.21729113,33.0366401 1.09748743,33.0366401 C0.977683738,33.0366401 0.873925179,32.9995632 0.786211759,32.9254095 C0.698498338,32.8512557 0.654641628,32.7357877 0.654641628,32.5790055 L0.654641628,32.5790055 L0.654641628,30.1891361 C0.654641628,30.0323539 0.698498338,29.9168859 0.786211759,29.8427321 C0.873925179,29.7685784 0.977683738,29.7315015 1.09748743,29.7315015 C1.21729113,29.7315015 1.32104969,29.7685784 1.40876311,29.8427321 C1.49647653,29.9168859 1.54033324,30.0323539 1.54033324,30.1891361 L1.54033324,30.1891361 L1.54033324,30.4179534 L2.19497487,30.4179534 L2.19497487,30.1891361 C2.19497487,30.0069297 2.16288459,29.8459101 2.09870404,29.7060773 C2.03452349,29.5662446 1.95108877,29.4497172 1.84839989,29.3564954 C1.7414323,29.2675109 1.62269828,29.1997132 1.49219783,29.1531022 C1.36169737,29.1064913 1.23012724,29.0831858 1.09748743,29.0831858 C0.964847628,29.0831858 0.833277497,29.1064913 0.702777041,29.1531022 C0.572276586,29.1997132 0.455681917,29.2675109 0.352993034,29.3564954 C0.246025448,29.4497172 0.160451379,29.5662446 0.0962708276,29.7060773 C0.0320902759,29.8459101 0,30.0069297 0,30.1891361 L0,30.1891361 L0,32.5790055 C0,32.7696866 0.0320902759,32.9328249 0.0962708276,33.0684203 C0.160451379,33.2040157 0.246025448,33.3163057 0.352993034,33.4052902 C0.455681917,33.498512 0.572276586,33.5684284 0.702777041,33.6150394 C0.833277497,33.6616503 0.964847628,33.6849558 1.09748743,33.6849558 Z M5.13627787,33.6468195 L5.13627787,32.9985039 L3.83983073,32.9985039 L3.83983073,29.1213221 L3.1851891,29.1213221 L3.1851891,33.6468195 L5.13627787,33.6468195 Z M7.03143789,33.6849558 C7.16407769,33.6849558 7.29564783,33.6616503 7.42614828,33.6150394 C7.55664874,33.5684284 7.67538276,33.498512 7.78235034,33.4052902 C7.88503923,33.3163057 7.96847394,33.2040157 8.03265449,33.0684203 C8.09683505,32.9328249 8.12892532,32.7696866 8.12892532,32.5790055 L8.12892532,32.5790055 L8.12892532,30.1891361 C8.12892532,30.0069297 8.09683505,29.8459101 8.03265449,29.7060773 C7.96847394,29.5662446 7.88503923,29.4497172 7.78235034,29.3564954 C7.67538276,29.2675109 7.55664874,29.1997132 7.42614828,29.1531022 C7.29564783,29.1064913 7.16407769,29.0831858 7.03143789,29.0831858 C6.89879808,29.0831858 6.76722795,29.1064913 6.63672749,29.1531022 C6.50622704,29.1997132 6.38963237,29.2675109 6.28694349,29.3564954 C6.1799759,29.4497172 6.09440183,29.5662446 6.03022128,29.7060773 C5.96604073,29.8459101 5.93395045,30.0069297 5.93395045,30.1891361 L5.93395045,30.1891361 L5.93395045,32.5790055 C5.93395045,32.7696866 5.96604073,32.9328249 6.03022128,33.0684203 C6.09440183,33.2040157 6.1799759,33.3163057 6.28694349,33.4052902 C6.38963237,33.498512 6.50622704,33.5684284 6.63672749,33.6150394 C6.76722795,33.6616503 6.89879808,33.6849558 7.03143789,33.6849558 Z M7.03143789,33.0366401 C6.91163419,33.0366401 6.80787563,32.9995632 6.72016221,32.9254095 C6.63244879,32.8512557 6.58859208,32.7357877 6.58859208,32.5790055 L6.58859208,32.5790055 L6.58859208,30.1891361 C6.58859208,30.0323539 6.63244879,29.9168859 6.72016221,29.8427321 C6.80787563,29.7685784 6.91163419,29.7315015 7.03143789,29.7315015 C7.15124158,29.7315015 7.25500014,29.7685784 7.34271356,29.8427321 C7.43042698,29.9168859 7.47428369,30.0323539 7.47428369,30.1891361 L7.47428369,30.1891361 L7.47428369,32.5790055 C7.47428369,32.7357877 7.43042698,32.8512557 7.34271356,32.9254095 C7.25500014,32.9995632 7.15124158,33.0366401 7.03143789,33.0366401 Z M10.0112492,33.6468195 C10.4391196,33.6468195 10.7503952,33.5408856 10.9450763,33.3290177 C11.1397573,33.1171499 11.2370978,32.8120602 11.2370978,32.4137486 L11.2370978,32.4137486 L11.2370978,32.1595072 C11.2370978,31.9179778 11.2007288,31.7272967 11.1279908,31.5874639 C11.0552529,31.4476312 10.9418672,31.3416972 10.7878339,31.2696622 C10.9375885,31.184915 11.0488348,31.0832184 11.1215728,30.9645724 C11.1600811,30.9010121 11.1889623,30.8268583 11.2082165,30.7421112 C11.2274707,30.657364 11.2370978,30.5535488 11.2370978,30.4306654 L11.2370978,30.4306654 L11.2370978,30.2654085 C11.2370978,30.117101 11.2167739,29.9740902 11.1761262,29.8363761 C11.1354786,29.698662 11.068089,29.576838 10.9739575,29.470904 C10.879826,29.3649701 10.7589527,29.280223 10.6113374,29.2166626 C10.4637221,29.1531022 10.2850862,29.1213221 10.0754298,29.1213221 L10.0754298,29.1213221 L9.11913956,29.1213221 L9.11913956,33.6468195 L10.0112492,33.6468195 Z M10.0690117,30.9772845 L9.77378118,30.9772845 L9.77378118,29.7315015 L10.0433395,29.7315015 C10.2615534,29.7315015 10.4123777,29.7823498 10.4958124,29.8840464 C10.5792471,29.9857429 10.6209645,30.1382878 10.6209645,30.3416809 C10.6209645,30.5493114 10.5835258,30.707153 10.5086485,30.8152056 C10.4337712,30.9232582 10.2872256,30.9772845 10.0690117,30.9772845 L10.0690117,30.9772845 Z M10.0561756,32.9985039 L9.77378118,32.9985039 L9.77378118,31.5493277 L10.0625937,31.5493277 C10.1823974,31.5493277 10.2786682,31.5630991 10.3514061,31.590642 C10.4241441,31.6181848 10.4819066,31.6616177 10.5246936,31.7209407 C10.563202,31.7802637 10.5888742,31.8522988 10.6017103,31.9370459 C10.6145464,32.0217931 10.6209645,32.1213709 10.6209645,32.2357796 C10.6209645,32.3459509 10.6166858,32.4476475 10.6081284,32.5408693 C10.5995709,32.6340912 10.5760381,32.714601 10.5375297,32.7823987 C10.4990214,32.8501964 10.4423286,32.9031634 10.3674513,32.9412996 C10.292574,32.9794358 10.1888154,32.9985039 10.0561756,32.9985039 L10.0561756,32.9985039 Z M12.5482148,33.6468195 L12.7407564,32.6743461 L13.6328661,32.6743461 L13.8254077,33.6468195 L14.4800494,33.6468195 L13.4595786,29.1213221 L12.9140439,29.1213221 L11.8935731,33.6468195 L12.5482148,33.6468195 Z M13.510923,32.0641666 L12.8562814,32.0641666 L13.1771842,30.4243094 L13.1900203,30.4243094 L13.510923,32.0641666 Z M17.1646302,33.6468195 L17.1646302,32.9985039 L15.868183,32.9985039 L15.868183,29.1213221 L15.2135414,29.1213221 L15.2135414,33.6468195 L17.1646302,33.6468195 Z M20.2618002,33.6468195 L20.2618002,31.7145847 L20.6533016,31.7145847 L21.2630168,33.6468195 L21.9561668,33.6468195 L21.2501807,31.5811079 C21.4598372,31.4666993 21.6063828,31.3162731 21.6898175,31.1298294 C21.7732522,30.9433856 21.8149696,30.716687 21.8149696,30.4497335 C21.8149696,29.5641259 21.4298863,29.1213221 20.6597196,29.1213221 L20.6597196,29.1213221 L19.6071586,29.1213221 L19.6071586,33.6468195 L20.2618002,33.6468195 Z M20.6340474,31.1425414 L20.2618002,31.1425414 L20.2618002,29.7315015 L20.6019572,29.7315015 C20.8287284,29.7315015 20.9827618,29.7908245 21.0640571,29.9094705 C21.1025655,29.9730309 21.1282377,30.0482439 21.1410738,30.1351098 C21.1539099,30.2219756 21.160328,30.3226128 21.160328,30.4370215 C21.160328,30.5514301 21.1539099,30.6520673 21.1410738,30.7389332 C21.1282377,30.825799 21.1047048,30.8988934 21.0704752,30.9582164 C21.0319668,31.0175394 20.9784831,31.063091 20.9100238,31.0948712 C20.8415645,31.1266513 20.7495724,31.1425414 20.6340474,31.1425414 L20.6340474,31.1425414 Z M24.7049281,33.6468195 L24.7049281,32.9985039 L23.408481,32.9985039 L23.408481,31.6700924 L24.5380587,31.6700924 L24.5380587,31.059913 L23.408481,31.059913 L23.408481,29.7315015 L24.7049281,29.7315015 L24.7049281,29.1213221 L22.7538394,29.1213221 L22.7538394,33.6468195 L24.7049281,33.6468195 Z M26.5294896,33.6849558 C26.739146,33.6849558 26.9167122,33.6510569 27.0621881,33.5832592 C27.207664,33.5154615 27.3253284,33.4222396 27.4151812,33.3035936 C27.5007552,33.189185 27.5627964,33.0504115 27.6013048,32.8872733 C27.6398131,32.724135 27.6590673,32.5472253 27.6590673,32.3565443 C27.6590673,32.1912873 27.6505099,32.0440392 27.633395,31.9147998 C27.6162802,31.7855604 27.58419,31.6700924 27.5371242,31.5683958 C27.4857798,31.4709366 27.4151812,31.3851301 27.3253284,31.3109764 C27.2354756,31.2368226 27.1178113,31.1722029 26.9723354,31.1171173 L26.9723354,31.1171173 L26.4717271,30.9200802 C26.386153,30.8861813 26.3187634,30.8522825 26.2695583,30.8183836 C26.2203532,30.7844848 26.1829146,30.7442299 26.1572424,30.6976189 C26.1315701,30.651008 26.115525,30.598041 26.1091069,30.538718 C26.1026889,30.479395 26.0994799,30.4052413 26.0994799,30.3162568 C26.0994799,30.2399844 26.1058979,30.1668899 26.118734,30.0969735 C26.1315701,30.0270572 26.155103,29.9645561 26.1893326,29.9094705 C26.2235623,29.8586222 26.2684886,29.8162486 26.3241118,29.7823498 C26.3797349,29.7484509 26.4524729,29.7315015 26.5423257,29.7315015 C26.7091951,29.7315015 26.8279291,29.7855278 26.8985277,29.8935804 C26.9691263,30.001633 27.0044256,30.1298131 27.0044256,30.2781206 L27.0044256,30.2781206 L27.0044256,30.4243094 L27.6590673,30.4243094 L27.6590673,30.1065076 C27.6590673,29.8437915 27.5606571,29.6107368 27.3638367,29.4073437 C27.2654265,29.3098845 27.1488319,29.2314933 27.0140527,29.1721703 C26.8792736,29.1128473 26.7305886,29.0831858 26.5679979,29.0831858 C26.3754562,29.0831858 26.2096565,29.1160254 26.0705986,29.1817044 C25.9315407,29.2473834 25.8170854,29.3353086 25.7272327,29.4454799 C25.6331012,29.5556512 25.5625026,29.6870092 25.5154368,29.8395541 C25.4683711,29.992099 25.4448382,30.1531185 25.4448382,30.3226128 C25.4448382,30.6065158 25.4929736,30.8427484 25.5892445,31.0313108 C25.6855153,31.2198732 25.8748479,31.3713587 26.1572424,31.4857674 L26.1572424,31.4857674 L26.6257604,31.6764484 C26.7070557,31.7103473 26.772306,31.7421275 26.8215111,31.771789 C26.8707162,31.8014505 26.9102942,31.8395867 26.9402451,31.8861976 C26.9659173,31.9328086 26.9830321,31.9942502 26.9915895,32.0705227 C27.0001469,32.1467951 27.0044256,32.2442543 27.0044256,32.3629003 C27.0044256,32.4645969 27.0012166,32.5567594 26.9947986,32.6393879 C26.9883805,32.7220163 26.9680567,32.7929921 26.933827,32.8523151 C26.8995974,32.9116381 26.851462,32.9571897 26.7894208,32.9889698 C26.7273796,33.02075 26.6407358,33.0366401 26.5294896,33.0366401 C26.3626201,33.0366401 26.2438861,32.9889698 26.1732875,32.8936293 C26.1026889,32.7982888 26.0673896,32.6912955 26.0673896,32.5726495 L26.0673896,32.5726495 L26.0673896,32.3692563 L25.412748,32.3692563 L25.412748,32.6107857 C25.412748,32.7633306 25.4416292,32.9042227 25.4993917,33.0334621 C25.5571542,33.1627015 25.6352405,33.2760508 25.7336507,33.37351 C25.8320609,33.4709692 25.9497252,33.5472416 26.0866437,33.6023273 C26.2235623,33.6574129 26.3711775,33.6849558 26.5294896,33.6849558 Z M30.5105175,33.6468195 L30.5105175,32.9985039 L29.2140704,32.9985039 L29.2140704,31.6700924 L30.3436481,31.6700924 L30.3436481,31.059913 L29.2140704,31.059913 L29.2140704,29.7315015 L30.5105175,29.7315015 L30.5105175,29.1213221 L28.5594287,29.1213221 L28.5594287,33.6468195 L30.5105175,33.6468195 Z M31.7061095,33.6468195 L31.8986512,32.6743461 L32.7907608,32.6743461 L32.9833025,33.6468195 L33.6379441,33.6468195 L32.6174733,29.1213221 L32.0719386,29.1213221 L31.0514679,33.6468195 L31.7061095,33.6468195 Z M32.6688178,32.0641666 L32.0141761,32.0641666 L32.3350789,30.4243094 L32.347915,30.4243094 L32.6688178,32.0641666 Z M35.0260778,33.6468195 L35.0260778,31.7145847 L35.4175791,31.7145847 L36.0272944,33.6468195 L36.7204443,33.6468195 L36.0144583,31.5811079 C36.2241147,31.4666993 36.3706603,31.3162731 36.454095,31.1298294 C36.5375297,30.9433856 36.5792471,30.716687 36.5792471,30.4497335 C36.5792471,29.5641259 36.1941638,29.1213221 35.4239972,29.1213221 L35.4239972,29.1213221 L34.3714361,29.1213221 L34.3714361,33.6468195 L35.0260778,33.6468195 Z M35.398325,31.1425414 L35.0260778,31.1425414 L35.0260778,29.7315015 L35.3662347,29.7315015 C35.593006,29.7315015 35.7470393,29.7908245 35.8283347,29.9094705 C35.866843,29.9730309 35.8925152,30.0482439 35.9053513,30.1351098 C35.9181874,30.2219756 35.9246055,30.3226128 35.9246055,30.4370215 C35.9246055,30.5514301 35.9181874,30.6520673 35.9053513,30.7389332 C35.8925152,30.825799 35.8689823,30.8988934 35.8347527,30.9582164 C35.7962444,31.0175394 35.7427606,31.063091 35.6743013,31.0948712 C35.6058421,31.1266513 35.5138499,31.1425414 35.398325,31.1425414 L35.398325,31.1425414 Z M38.5578418,33.6849558 C38.7033178,33.6849558 38.8391666,33.6563536 38.9653883,33.5991493 C39.0916101,33.5419449 39.2017867,33.4646132 39.2959182,33.367154 C39.3900497,33.2696947 39.4638573,33.1584641 39.5173411,33.0334621 C39.5708249,32.90846 39.5975668,32.7760426 39.5975668,32.6362098 L39.5975668,32.6362098 L39.5975668,32.3565443 L38.9429251,32.3565443 L38.9429251,32.5790055 C38.9429251,32.66799 38.930089,32.7421438 38.9044168,32.8014668 C38.8787446,32.8607898 38.8466543,32.9074007 38.808146,32.9412996 C38.765359,32.9751984 38.7193629,32.9995632 38.6701578,33.014394 C38.6209527,33.0292247 38.5749567,33.0366401 38.5321696,33.0366401 C38.382415,33.0366401 38.2786564,32.9921479 38.2208939,32.9031634 C38.1631314,32.8141788 38.1342502,32.7040076 38.1342502,32.5726495 L38.1342502,32.5726495 L38.1342502,30.2590525 C38.1342502,30.1065076 38.1609921,29.9804462 38.2144759,29.8808683 C38.2679597,29.7812904 38.3759969,29.7315015 38.5385877,29.7315015 C38.6626701,29.7315015 38.7610803,29.7781124 38.8338182,29.8713343 C38.9065562,29.9645561 38.9429251,30.0747274 38.9429251,30.2018481 L38.9429251,30.2018481 L38.9429251,30.4179534 L39.5975668,30.4179534 L39.5975668,30.1637119 C39.5975668,30.0069297 39.5708249,29.8618002 39.5173411,29.7283235 C39.4638573,29.5948467 39.3900497,29.4793787 39.2959182,29.3819195 C39.1033765,29.1827637 38.8530724,29.0831858 38.5450057,29.0831858 C38.3866937,29.0831858 38.2422875,29.1096693 38.111787,29.1626363 C37.9812865,29.2156033 37.8689706,29.2886977 37.7748391,29.3819195 C37.6807076,29.4751414 37.6079697,29.5853127 37.5566252,29.7124334 C37.5052808,29.8395541 37.4796086,29.9772682 37.4796086,30.1255757 L37.4796086,30.1255757 L37.4796086,32.6171417 C37.4796086,32.8247722 37.5127685,32.9953259 37.5790884,33.1288026 C37.6454083,33.2622794 37.7299127,33.3713913 37.8326016,33.4561385 C37.9352905,33.5408856 38.0508155,33.6002086 38.1791766,33.6341075 C38.3075377,33.6680063 38.4337594,33.6849558 38.5578418,33.6849558 Z M41.1974963,33.6468195 L41.1974963,31.6319562 L42.0061712,31.6319562 L42.0061712,33.6468195 L42.6608128,33.6468195 L42.6608128,29.1213221 L42.0061712,29.1213221 L42.0061712,31.059913 L41.1974963,31.059913 L41.1974963,29.1213221 L40.5428546,29.1213221 L40.5428546,33.6468195 L41.1974963,33.6468195 Z M46.1623204,33.6849558 C46.3420259,33.6849558 46.5003379,33.6531756 46.6372565,33.5896152 C46.774175,33.5260549 46.9068148,33.4307143 47.0351759,33.3035936 L47.0351759,33.3035936 L47.2533898,33.6468195 L47.9080314,33.6468195 L47.4138411,32.8713832 L47.9016133,32.2484917 L47.4972758,31.9688261 L47.1442828,32.4455288 C47.0373152,32.2929839 46.9303476,32.1256083 46.8233801,31.9434019 C46.7677569,31.8586548 46.7174821,31.778145 46.6725558,31.7018726 C46.6276294,31.6256002 46.5837727,31.5578024 46.5409856,31.4984794 C46.7206912,31.3374599 46.8768638,31.1616095 47.0095037,30.9709285 C47.1421435,30.7802474 47.2084634,30.5768543 47.2084634,30.360749 C47.2084634,30.1319317 47.1335861,29.939132 46.9838314,29.7823498 C46.9110935,29.7103147 46.8212407,29.652051 46.7142731,29.6075588 C46.6073055,29.5630665 46.4832231,29.5408204 46.3420259,29.5408204 C46.1922713,29.5408204 46.0617708,29.5641259 45.9505246,29.6107368 C45.8392783,29.6573477 45.7472861,29.7187894 45.6745482,29.7950618 C45.6018102,29.8755716 45.5461871,29.9698528 45.5076787,30.0779054 C45.4691704,30.1859581 45.4499162,30.2993074 45.4499162,30.4179534 C45.4499162,30.6086344 45.4873549,30.7897815 45.5622322,30.9613944 C45.6371095,31.1330074 45.7323107,31.2993237 45.8478357,31.4603432 C45.6681301,31.6213628 45.5183755,31.7950944 45.3985718,31.9815382 C45.2787681,32.1679819 45.2188663,32.3862058 45.2188663,32.6362098 C45.2188663,32.7929921 45.2434688,32.9360029 45.2926739,33.0652423 C45.341879,33.1944817 45.4092686,33.3035936 45.4948426,33.3925781 C45.5804167,33.4858 45.6809662,33.557835 45.7964912,33.6086833 C45.9120162,33.6595316 46.0339593,33.6849558 46.1623204,33.6849558 Z M46.2778454,31.0853371 C46.2051074,30.9709285 46.1452056,30.8575792 46.0981398,30.7452892 C46.0510741,30.6329992 46.0275412,30.5281246 46.0275412,30.4306654 C46.0275412,30.3332062 46.0574921,30.2452811 46.117394,30.1668899 C46.1772958,30.0884988 46.2564518,30.0493033 46.354862,30.0493033 C46.4532722,30.0493033 46.5302889,30.0832021 46.585912,30.1509999 C46.6415352,30.2187976 46.6693467,30.2929513 46.6693467,30.3734611 C46.6693467,30.4539709 46.6565106,30.529184 46.6308384,30.5991004 C46.6051662,30.6690168 46.5730759,30.7336365 46.5345676,30.7929595 C46.4960592,30.8522825 46.4532722,30.9063088 46.4062065,30.9550384 C46.3591407,31.003768 46.3163537,31.0472009 46.2778454,31.0853371 Z M46.2842634,33.1764729 C46.1430662,33.1764729 46.0264715,33.1203279 45.9344794,33.0080379 C45.8424873,32.895748 45.7964912,32.7612119 45.7964912,32.6044297 C45.7964912,32.4645969 45.8296512,32.3385355 45.8959711,32.2262455 C45.962291,32.1139556 46.044656,32.009081 46.1430662,31.9116218 L46.1430662,31.9116218 L46.7720356,32.9031634 C46.7249699,32.9624864 46.6565106,33.0228687 46.5666578,33.0843104 C46.4768051,33.145752 46.3826736,33.1764729 46.2842634,33.1764729 Z M51.0758001,33.6468195 L51.0758001,29.1213221 L50.4211584,29.1213221 L50.4211584,33.6468195 L51.0758001,33.6468195 Z M52.7527462,33.6468195 L52.7527462,30.9264362 L52.7655823,30.9264362 L53.7667989,33.6468195 L54.3829322,33.6468195 L54.3829322,29.1213221 L53.7282906,29.1213221 L53.7282906,31.8480614 L53.7154545,31.8480614 L52.727074,29.1213221 L52.0981046,29.1213221 L52.0981046,33.6468195 L52.7527462,33.6468195 Z M56.6695936,33.6468195 L57.6066296,29.1213221 L56.9134797,29.1213221 L56.3871992,32.2802718 L56.374363,32.2802718 L55.8545006,29.1213221 L55.1613506,29.1213221 L56.0919686,33.6468195 L56.6695936,33.6468195 Z M60.361809,33.6468195 L60.361809,32.9985039 L59.0653619,32.9985039 L59.0653619,31.6700924 L60.1949396,31.6700924 L60.1949396,31.059913 L59.0653619,31.059913 L59.0653619,29.7315015 L60.361809,29.7315015 L60.361809,29.1213221 L58.4107203,29.1213221 L58.4107203,33.6468195 L60.361809,33.6468195 Z M62.1863705,33.6849558 C62.3960269,33.6849558 62.5735931,33.6510569 62.719069,33.5832592 C62.8645449,33.5154615 62.9822093,33.4222396 63.0720621,33.3035936 C63.1576361,33.189185 63.2196773,33.0504115 63.2581857,32.8872733 C63.296694,32.724135 63.3159482,32.5472253 63.3159482,32.3565443 C63.3159482,32.1912873 63.3073908,32.0440392 63.2902759,31.9147998 C63.2731611,31.7855604 63.2410709,31.6700924 63.1940051,31.5683958 C63.1426607,31.4709366 63.0720621,31.3851301 62.9822093,31.3109764 C62.8923565,31.2368226 62.7746922,31.1722029 62.6292163,31.1171173 L62.6292163,31.1171173 L62.128608,30.9200802 C62.0430339,30.8861813 61.9756443,30.8522825 61.9264392,30.8183836 C61.8772341,30.7844848 61.8397955,30.7442299 61.8141233,30.6976189 C61.788451,30.651008 61.7724059,30.598041 61.7659878,30.538718 C61.7595698,30.479395 61.7563608,30.4052413 61.7563608,30.3162568 C61.7563608,30.2399844 61.7627788,30.1668899 61.7756149,30.0969735 C61.788451,30.0270572 61.8119839,29.9645561 61.8462135,29.9094705 C61.8804432,29.8586222 61.9253695,29.8162486 61.9809927,29.7823498 C62.0366158,29.7484509 62.1093538,29.7315015 62.1992066,29.7315015 C62.366076,29.7315015 62.48481,29.7855278 62.5554086,29.8935804 C62.6260072,30.001633 62.6613065,30.1298131 62.6613065,30.2781206 L62.6613065,30.2781206 L62.6613065,30.4243094 L63.3159482,30.4243094 L63.3159482,30.1065076 C63.3159482,29.8437915 63.217538,29.6107368 63.0207176,29.4073437 C62.9223074,29.3098845 62.8057128,29.2314933 62.6709336,29.1721703 C62.5361545,29.1128473 62.3874695,29.0831858 62.2248788,29.0831858 C62.0323371,29.0831858 61.8665374,29.1160254 61.7274795,29.1817044 C61.5884216,29.2473834 61.4739663,29.3353086 61.3841136,29.4454799 C61.2899821,29.5556512 61.2193835,29.6870092 61.1723177,29.8395541 C61.125252,29.992099 61.1017191,30.1531185 61.1017191,30.3226128 C61.1017191,30.6065158 61.1498545,30.8427484 61.2461254,31.0313108 C61.3423962,31.2198732 61.5317288,31.3713587 61.8141233,31.4857674 L61.8141233,31.4857674 L62.2826413,31.6764484 C62.3639366,31.7103473 62.4291869,31.7421275 62.478392,31.771789 C62.5275971,31.8014505 62.5671751,31.8395867 62.597126,31.8861976 C62.6227982,31.9328086 62.639913,31.9942502 62.6484704,32.0705227 C62.6570278,32.1467951 62.6613065,32.2442543 62.6613065,32.3629003 C62.6613065,32.4645969 62.6580975,32.5567594 62.6516795,32.6393879 C62.6452614,32.7220163 62.6249376,32.7929921 62.5907079,32.8523151 C62.5564783,32.9116381 62.5083429,32.9571897 62.4463017,32.9889698 C62.3842605,33.02075 62.2976167,33.0366401 62.1863705,33.0366401 C62.019501,33.0366401 61.900767,32.9889698 61.8301684,32.8936293 C61.7595698,32.7982888 61.7242705,32.6912955 61.7242705,32.5726495 L61.7242705,32.5726495 L61.7242705,32.3692563 L61.0696289,32.3692563 L61.0696289,32.6107857 C61.0696289,32.7633306 61.0985101,32.9042227 61.1562726,33.0334621 C61.2140351,33.1627015 61.2921214,33.2760508 61.3905316,33.37351 C61.4889418,33.4709692 61.6066061,33.5472416 61.7435246,33.6023273 C61.8804432,33.6574129 62.0280584,33.6849558 62.1863705,33.6849558 Z M65.3009609,33.6468195 L65.3009609,29.7315015 L66.0582915,29.7315015 L66.0582915,29.1213221 L63.8889888,29.1213221 L63.8889888,29.7315015 L64.6463193,29.7315015 L64.6463193,33.6468195 L65.3009609,33.6468195 Z M67.4143348,33.6468195 L67.4143348,30.894656 L67.4271709,30.894656 L68.0689765,32.839603 L68.3962973,32.839603 L69.0445209,30.894656 L69.057357,30.894656 L69.057357,33.6468195 L69.7119986,33.6468195 L69.7119986,29.1213221 L69.0766111,29.1213221 L68.242264,31.5175475 L68.2294278,31.5175475 L67.3886626,29.1213221 L66.7596932,29.1213221 L66.7596932,33.6468195 L67.4143348,33.6468195 Z M72.6918099,33.6468195 L72.6918099,32.9985039 L71.3953628,32.9985039 L71.3953628,31.6700924 L72.5249405,31.6700924 L72.5249405,31.059913 L71.3953628,31.059913 L71.3953628,29.7315015 L72.6918099,29.7315015 L72.6918099,29.1213221 L70.7407212,29.1213221 L70.7407212,33.6468195 L72.6918099,33.6468195 Z M74.1569602,33.6468195 L74.1569602,30.9264362 L74.1697964,30.9264362 L75.171013,33.6468195 L75.7871463,33.6468195 L75.7871463,29.1213221 L75.1325046,29.1213221 L75.1325046,31.8480614 L75.1196685,31.8480614 L74.131288,29.1213221 L73.5023186,29.1213221 L73.5023186,33.6468195 L74.1569602,33.6468195 Z M77.8748479,33.6468195 L77.8748479,29.7315015 L78.6321784,29.7315015 L78.6321784,29.1213221 L76.4628758,29.1213221 L76.4628758,29.7315015 L77.2202063,29.7315015 L77.2202063,33.6468195 L77.8748479,33.6468195 Z M81.5945693,33.6468195 L81.5945693,31.8798416 L81.9283082,31.8798416 C82.1721943,31.8798416 82.3690147,31.8385274 82.5187693,31.7558989 C82.6685239,31.6732704 82.7883276,31.5578024 82.8781804,31.4094949 C82.955197,31.2866116 83.0054718,31.1552535 83.0290047,31.0154207 C83.0525375,30.8755879 83.064304,30.703975 83.064304,30.5005818 C83.064304,30.229391 83.0429105,30.0143451 83.0001234,29.8554442 C82.9573364,29.6965433 82.8803197,29.5577698 82.7690734,29.4391238 C82.6578272,29.3204778 82.5337448,29.2378494 82.3968262,29.1912384 C82.2599077,29.1446275 82.1015957,29.1213221 81.9218902,29.1213221 L81.9218902,29.1213221 L80.9399277,29.1213221 L80.9399277,33.6468195 L81.5945693,33.6468195 Z M81.909054,31.2696622 L81.5945693,31.2696622 L81.5945693,29.7315015 L81.9347263,29.7315015 C82.0630874,29.7315015 82.1614976,29.7505696 82.2299568,29.7887058 C82.2984161,29.826842 82.3497605,29.8819277 82.3839901,29.9539627 C82.4182198,30.0259978 82.4374739,30.1096856 82.4417526,30.2050262 C82.4460313,30.3003667 82.4481707,30.4010039 82.4481707,30.5069379 C82.4481707,30.6213465 82.4449617,30.7251618 82.4385436,30.8183836 C82.4321255,30.9116055 82.4118017,30.9899966 82.3775721,31.0535569 C82.3433424,31.1213547 82.2898587,31.1743216 82.2171207,31.2124578 C82.1443827,31.250594 82.0416939,31.2696622 81.909054,31.2696622 L81.909054,31.2696622 Z M85.9157542,33.6468195 L85.9157542,32.9985039 L84.6193071,32.9985039 L84.6193071,29.1213221 L83.9646654,29.1213221 L83.9646654,33.6468195 L85.9157542,33.6468195 Z M87.1113462,33.6468195 L87.3038879,32.6743461 L88.1959975,32.6743461 L88.3885392,33.6468195 L89.0431808,33.6468195 L88.02271,29.1213221 L87.4771754,29.1213221 L86.4567046,33.6468195 L87.1113462,33.6468195 Z M88.0740545,32.0641666 L87.4194129,32.0641666 L87.7403156,30.4243094 L87.7531517,30.4243094 L88.0740545,32.0641666 Z M90.5083311,33.6468195 L90.5083311,29.7315015 L91.2656616,29.7315015 L91.2656616,29.1213221 L89.096359,29.1213221 L89.096359,29.7315015 L89.8536895,29.7315015 L89.8536895,33.6468195 L90.5083311,33.6468195 Z M92.621705,33.6468195 L92.621705,31.7145847 L93.7512827,31.7145847 L93.7512827,31.1044052 L92.621705,31.1044052 L92.621705,29.7315015 L93.9181522,29.7315015 L93.9181522,29.1213221 L91.9670634,29.1213221 L91.9670634,33.6468195 L92.621705,33.6468195 Z M95.8133122,33.6849558 C95.945952,33.6849558 96.0775221,33.6616503 96.2080226,33.6150394 C96.338523,33.5684284 96.457257,33.498512 96.5642246,33.4052902 C96.6669135,33.3163057 96.7503482,33.2040157 96.8145288,33.0684203 C96.8787093,32.9328249 96.9107996,32.7696866 96.9107996,32.5790055 L96.9107996,32.5790055 L96.9107996,30.1891361 C96.9107996,30.0069297 96.8787093,29.8459101 96.8145288,29.7060773 C96.7503482,29.5662446 96.6669135,29.4497172 96.5642246,29.3564954 C96.457257,29.2675109 96.338523,29.1997132 96.2080226,29.1531022 C96.0775221,29.1064913 95.945952,29.0831858 95.8133122,29.0831858 C95.6806724,29.0831858 95.5491022,29.1064913 95.4186018,29.1531022 C95.2881013,29.1997132 95.1715067,29.2675109 95.0688178,29.3564954 C94.9618502,29.4497172 94.8762761,29.5662446 94.8120956,29.7060773 C94.747915,29.8459101 94.7158247,30.0069297 94.7158247,30.1891361 L94.7158247,30.1891361 L94.7158247,32.5790055 C94.7158247,32.7696866 94.747915,32.9328249 94.8120956,33.0684203 C94.8762761,33.2040157 94.9618502,33.3163057 95.0688178,33.4052902 C95.1715067,33.498512 95.2881013,33.5684284 95.4186018,33.6150394 C95.5491022,33.6616503 95.6806724,33.6849558 95.8133122,33.6849558 Z M95.8133122,33.0366401 C95.6935085,33.0366401 95.5897499,32.9995632 95.5020365,32.9254095 C95.4143231,32.8512557 95.3704664,32.7357877 95.3704664,32.5790055 L95.3704664,32.5790055 L95.3704664,30.1891361 C95.3704664,30.0323539 95.4143231,29.9168859 95.5020365,29.8427321 C95.5897499,29.7685784 95.6935085,29.7315015 95.8133122,29.7315015 C95.9331159,29.7315015 96.0368744,29.7685784 96.1245879,29.8427321 C96.2123013,29.9168859 96.256158,30.0323539 96.256158,30.1891361 L96.256158,30.1891361 L96.256158,32.5790055 C96.256158,32.7357877 96.2123013,32.8512557 96.1245879,32.9254095 C96.0368744,32.9995632 95.9331159,33.0366401 95.8133122,33.0366401 Z M98.5556555,33.6468195 L98.5556555,31.7145847 L98.9471568,31.7145847 L99.5568721,33.6468195 L100.250022,33.6468195 L99.544036,31.5811079 C99.7536924,31.4666993 99.900238,31.3162731 99.9836728,31.1298294 C100.067107,30.9433856 100.108825,30.716687 100.108825,30.4497335 C100.108825,29.5641259 99.7237415,29.1213221 98.9535749,29.1213221 L98.9535749,29.1213221 L97.9010138,29.1213221 L97.9010138,33.6468195 L98.5556555,33.6468195 Z M98.9279027,31.1425414 L98.5556555,31.1425414 L98.5556555,29.7315015 L98.8958124,29.7315015 C99.1225837,29.7315015 99.276617,29.7908245 99.3579124,29.9094705 C99.3964207,29.9730309 99.4220929,30.0482439 99.434929,30.1351098 C99.4477651,30.2219756 99.4541832,30.3226128 99.4541832,30.4370215 C99.4541832,30.5514301 99.4477651,30.6520673 99.434929,30.7389332 C99.4220929,30.825799 99.3985601,30.8988934 99.3643304,30.9582164 C99.3258221,31.0175394 99.2723383,31.063091 99.203879,31.0948712 C99.1354198,31.1266513 99.0434277,31.1425414 98.9279027,31.1425414 L98.9279027,31.1425414 Z M101.702336,33.6468195 L101.702336,30.894656 L101.715172,30.894656 L102.356978,32.839603 L102.684299,32.839603 L103.332522,30.894656 L103.345358,30.894656 L103.345358,33.6468195 L104,33.6468195 L104,29.1213221 L103.364613,29.1213221 L102.530265,31.5175475 L102.517429,31.5175475 L101.676664,29.1213221 L101.047695,29.1213221 L101.047695,33.6468195 L101.702336,33.6468195 Z" id="GLOBALRESEARCH&amp;INVESTMENTPLATFORM" fill="#A5B0B5" fill-rule="nonzero"></path>
            </g>
        </g>
    </g>
</svg>